<svg id="visual" viewBox="0 0 960 750" width="960" height="750" xmlns="http://www.w3.org/2000/svg" xmlns:xlink="http://www.w3.org/1999/xlink" version="1.1"><rect x="0" y="0" width="960" height="750" fill="#6600FF"></rect><path d="M0 409L26.7 422.3C53.3 435.7 106.7 462.3 160 471.5C213.3 480.7 266.7 472.3 320 445.3C373.3 418.3 426.7 372.7 480 343.2C533.3 313.7 586.7 300.3 640 327.3C693.3 354.3 746.7 421.7 800 436.8C853.3 452 906.7 415 933.3 396.5L960 378L960 751L933.3 751C906.7 751 853.3 751 800 751C746.7 751 693.3 751 640 751C586.7 751 533.3 751 480 751C426.7 751 373.3 751 320 751C266.7 751 213.3 751 160 751C106.7 751 53.3 751 26.7 751L0 751Z" fill="#FFFFFF" stroke-linecap="round" stroke-linejoin="miter"></path></svg>